<?xml version="1.0" encoding="UTF-8" standalone="no"?>
<!-- Created with Inkscape (http://www.inkscape.org/) -->

<svg
   xmlns:dc="http://purl.org/dc/elements/1.1/"
   xmlns:cc="http://creativecommons.org/ns#"
   xmlns:rdf="http://www.w3.org/1999/02/22-rdf-syntax-ns#"
   xmlns:svg="http://www.w3.org/2000/svg"
   xmlns="http://www.w3.org/2000/svg"
   xmlns:sodipodi="http://sodipodi.sourceforge.net/DTD/sodipodi-0.dtd"
   xmlns:inkscape="http://www.inkscape.org/namespaces/inkscape"
   version="1.1"
   width="68"
   height="113.84139"
   id="svg4102"
   inkscape:version="0.48.4 r"
   sodipodi:docname="logo.svg">
  <sodipodi:namedview
     pagecolor="#ffffff"
     bordercolor="#666666"
     borderopacity="1"
     objecttolerance="10"
     gridtolerance="10"
     guidetolerance="10"
     inkscape:pageopacity="0"
     inkscape:pageshadow="2"
     inkscape:window-width="1920"
     inkscape:window-height="1017"
     id="namedview3102"
     showgrid="false"
     fit-margin-top="0"
     fit-margin-left="0"
     fit-margin-right="0"
     fit-margin-bottom="0"
     inkscape:zoom="2.14302"
     inkscape:cx="32.890094"
     inkscape:cy="55.062273"
     inkscape:window-x="1912"
     inkscape:window-y="-8"
     inkscape:window-maximized="1"
     inkscape:current-layer="svg4102" />
  <defs
     id="defs4104" />
  <metadata
     id="metadata4107">
    <rdf:RDF>
      <cc:Work
         rdf:about="">
        <dc:format>image/svg+xml</dc:format>
        <dc:type
           rdf:resource="http://purl.org/dc/dcmitype/StillImage" />
        <dc:title />
      </cc:Work>
    </rdf:RDF>
  </metadata>
  <g
     transform="matrix(1.0337474,0,0,1.0337474,-327.81159,-493.40732)"
     id="layer1">
    <g
       transform="matrix(1.25,0,0,-1.25,382.41937,529.4353)"
       id="g3102">
      <path
         d="m 0,0 c 2.436,-24.293 -7.203,-45.035 -21.527,-46.328 -14.325,-1.294 -27.911,17.349 -30.344,41.644 -2.436,24.293 7.203,45.036 21.527,46.329 C -16.02,42.939 -2.435,24.294 0,0 z"
         id="path3104"
         style="fill:#fffffd;fill-opacity:1;stroke:none"
         inkscape:connector-curvature="0" />
    </g>
    <g
       transform="matrix(1.25,0,0,-1.25,378.67925,487.15743)"
       id="g3106">
      <path
         d="M 0,0 C -30.074,-23.946 -18.621,-73.079 -18.621,-73.079"
         id="path3108"
         style="fill:none;stroke:#da9600;stroke-width:1.84099996;stroke-linecap:round;stroke-linejoin:miter;stroke-miterlimit:10;stroke-opacity:1;stroke-dasharray:none"
         inkscape:connector-curvature="0" />
    </g>
    <g
       transform="matrix(1.25,0,0,-1.25,355.20512,491.20768)"
       id="g3110">
      <path
         d="m 0,0 c 1.306,-3.785 -0.014,-7.592 -2.947,-8.504 -2.934,-0.912 -6.369,1.418 -7.676,5.203 -1.305,3.785 0.015,7.593 2.947,8.504 C -4.742,6.115 -1.306,3.786 0,0 z"
         id="path3112"
         style="fill:none;stroke:#da9600;stroke-width:1.84099996;stroke-linecap:butt;stroke-linejoin:miter;stroke-miterlimit:10;stroke-opacity:1;stroke-dasharray:none"
         inkscape:connector-curvature="0" />
    </g>
    <g
       transform="matrix(1.25,0,0,-1.25,322.92976,581.61055)"
       id="g3114">
      <path
         d="M 0,0 C 25.21,26.616 17.475,67.714 -2.865,75.063"
         id="path3116"
         style="fill:none;stroke:#da9600;stroke-width:1.84099996;stroke-linecap:round;stroke-linejoin:miter;stroke-miterlimit:10;stroke-opacity:1;stroke-dasharray:none"
         inkscape:connector-curvature="0" />
    </g>
  </g>
</svg>
